# xmcd
#
# Track frame offsets:
#	150
#	18648
#	44249
#	72806
#	89949
#	114508
#	137075
#	155542
#	177370
#	200616
#	220221
#	232572
#
# Disc length: 3330 seconds
#
# Revision: 1
# Processed by: cddbd v1.5.2PL0 Copyright (c) Steve Scherf et al.
# Submitted via: audiograbber 1.83.01
#
DISCID=b00d000c
DTITLE=Susanne Plahl - Brand New Recipe
DYEAR=1900
DGENRE=Blues
TTITLE0=Except For Me
TTITLE1=I Expected Myself To Get Older And Wiser
TTITLE2=Why Me
TTITLE3=Brand New Recipe
TTITLE4=Don't Hurt Yourself
TTITLE5=Hot Summer Day
TTITLE6=Way Up North
TTITLE7=Down And Confused
TTITLE8=Crazy Love
TTITLE9=No Money Can Buy
TTITLE10=Bloodsucker Blues
TTITLE11=Give Your Love
EXTD=
EXTT0=
EXTT1=
EXTT2=
EXTT3=
EXTT4=
EXTT5=
EXTT6=
EXTT7=
EXTT8=
EXTT9=
EXTT10=
EXTT11=
PLAYORDER=
